<svg width="40" height="40" viewBox="0 0 40 40" fill="none" xmlns="http://www.w3.org/2000/svg">
<path d="M20 30C25.5228 30 30 25.5228 30 20C30 14.4772 25.5228 10 20 10C14.4772 10 10 14.4772 10 20C10 25.5228 14.4772 30 20 30Z" stroke="#BC625C" stroke-width="2" stroke-linecap="round" stroke-linejoin="round"/>
<path d="M17.0898 16.9996C17.3249 16.3313 17.789 15.7677 18.3998 15.4087C19.0106 15.0498 19.7287 14.9185 20.427 15.0383C21.1253 15.1581 21.7587 15.5211 22.2149 16.0631C22.6712 16.6051 22.9209 17.2911 22.9198 17.9996C22.9198 19.9996 19.9198 20.9996 19.9198 20.9996" stroke="#BC625C" stroke-width="2" stroke-linecap="round" stroke-linejoin="round"/>
<circle cx="20" cy="25" r="0.5" stroke="#BC625C"/>
</svg>
