<svg width="40" height="40" viewBox="0 0 40 40" fill="none" xmlns="http://www.w3.org/2000/svg">
<path d="M9.83154 11H15.7306C16.7736 11 17.7739 11.4214 18.5114 12.1716C19.2489 12.9217 19.6632 13.9391 19.6632 15V29C19.6632 28.2044 19.3525 27.4413 18.7993 26.8787C18.2462 26.3161 17.496 26 16.7137 26H9.83154V11Z" stroke="#BC625C" stroke-width="2" stroke-linecap="round" stroke-linejoin="round"/>
<path d="M29.4953 11H23.5963C22.5532 11 21.5529 11.4214 20.8154 12.1716C20.0779 12.9217 19.6636 13.9391 19.6636 15V29C19.6636 28.2044 19.9743 27.4413 20.5275 26.8787C21.0806 26.3161 21.8308 26 22.6131 26H29.4953V11Z" stroke="#BC625C" stroke-width="2" stroke-linecap="round" stroke-linejoin="round"/>
</svg>
