<svg width="157" height="76" viewBox="0 0 157 76" fill="none" xmlns="http://www.w3.org/2000/svg">
<path d="M67.3096 29.7217V38.9303H67.4419L67.905 38.3032C70.2983 34.6153 73.8976 31.8687 78.091 30.5303C80.3064 29.8291 82.655 29.6519 84.951 30.0128C87.247 30.3737 89.4273 31.2627 91.3195 32.6097C93.3371 34.0601 94.8053 36.1476 95.4866 38.5342L95.7346 39.2438H95.8338C96.2472 38.6332 96.6606 38.0226 97.1071 37.4285C99.6466 33.8102 103.421 31.2402 107.723 30.2003C111.339 29.343 115.144 29.8177 118.438 31.537C120.043 32.3549 121.429 33.5416 122.484 34.9991C123.54 36.4566 124.233 38.1433 124.507 39.9204C124.772 41.3741 124.905 42.8489 124.904 44.3266C124.904 51.6043 124.904 58.8821 124.904 66.1598C124.923 67.1829 125.017 68.2033 125.185 69.2127C125.317 70.0254 125.62 70.8012 126.073 71.4893C126.526 72.1775 127.119 72.7625 127.814 73.2064C128.293 73.5529 128.806 73.8501 129.269 74.2131C129.34 74.291 129.394 74.3823 129.428 74.4816C129.462 74.5808 129.475 74.686 129.468 74.7907C129.468 74.7907 129.186 74.9392 129.038 74.9887C128.945 75.0054 128.849 75.0054 128.757 74.9887H103.953C103.694 74.9438 103.443 74.8604 103.209 74.7412L103.655 74.048C105.023 73.3409 106.154 72.2504 106.909 70.9106C107.664 69.5707 108.01 68.0399 107.905 66.5063C107.905 59.5256 108.087 52.5285 108.136 45.5479C108.136 44.5032 107.986 43.4639 107.69 42.4619C107.47 41.4609 106.977 40.5399 106.267 39.7998C105.557 39.0598 104.656 38.5294 103.663 38.2668C102.67 38.0042 101.624 38.0196 100.64 38.3113C99.6557 38.603 98.7709 39.1597 98.0827 39.9204L97.6031 40.399C97.1019 40.8657 96.7068 41.4341 96.4444 42.0661C96.182 42.6981 96.0583 43.3789 96.0819 44.0626C96.1811 50.6637 96.0819 57.3473 96.0819 63.9814C96.0819 65.5492 96.1976 67.1334 96.3464 68.6846C96.4149 69.5745 96.684 70.4376 97.1335 71.2091C97.583 71.9807 98.2014 72.6408 98.9425 73.1404C99.4055 73.4705 99.9016 73.7675 100.332 74.1305C100.528 74.3436 100.695 74.5824 100.828 74.8402L100.662 75.0217H75.4783C75.2068 74.987 74.9405 74.9206 74.6846 74.8237C74.8231 74.5413 75.0012 74.2801 75.2137 74.048C75.5724 73.767 75.9479 73.508 76.3382 73.2725C77.2214 72.6968 77.951 71.9151 78.4638 70.9951C78.9766 70.075 79.2573 69.0441 79.2816 67.9916C79.4304 65.4336 79.5296 62.8592 79.5461 60.2848C79.5461 55.466 79.5461 50.6472 79.5461 45.8284C79.5886 44.3912 79.3412 42.9601 78.8185 41.6202C78.5257 40.8125 78.0417 40.0873 77.4076 39.5065C76.7735 38.9257 76.0081 38.5064 75.1767 38.2844C74.3453 38.0624 73.4724 38.0442 72.6324 38.2313C71.7924 38.4185 71.0101 38.8055 70.3522 39.3594C69.398 40.2326 68.5287 41.194 67.7561 42.2308C67.5983 42.476 67.523 42.7651 67.5411 43.0559C67.5411 50.9002 67.5411 58.728 67.5411 66.5393C67.5655 67.3124 67.6317 68.0837 67.7396 68.8497C67.9079 69.947 68.3404 70.9872 68.9999 71.881C69.6594 72.7749 70.5264 73.4959 71.5263 73.9821C71.8736 74.1966 72.2704 74.3946 72.0224 74.9722H46.0612C46.0173 74.8968 45.9905 74.8128 45.9828 74.7259C45.9751 74.639 45.9866 74.5515 46.0166 74.4696C46.0466 74.3877 46.0943 74.3133 46.1563 74.2519C46.2183 74.1905 46.2931 74.1435 46.3754 74.1141C46.6896 73.9326 46.9707 73.7015 47.2848 73.5199C48.3553 72.8818 49.2298 71.9627 49.8129 70.8627C50.3961 69.7628 50.6655 68.5242 50.592 67.282C50.592 64.79 50.592 62.3311 50.592 59.8392C50.592 54.2503 50.592 48.6504 50.592 43.0394C50.5528 42.0216 50.4479 41.0073 50.2778 40.0029C49.992 38.0488 48.9686 36.2777 47.4172 35.0521C47.0826 34.8136 46.7724 34.5427 46.4912 34.2434C46.3332 34.0178 46.2157 33.7665 46.1439 33.5008C46.3536 33.3998 46.5762 33.3276 46.8053 33.2863C49.9306 32.9067 53.0724 32.6923 56.1811 32.1477C59.6205 31.5371 63.0269 30.6459 66.4333 29.8538L67.3758 29.6227" fill="#1D1D1B"/>
<path d="M28.7323 45.8448C28.7323 45.2837 28.7323 44.7721 28.7323 44.2935C28.5504 42.7258 28.4181 41.158 28.137 39.6232C27.8559 37.7256 27.1058 35.9278 25.9543 34.3919C25.5926 33.8858 25.1343 33.4559 24.6057 33.1271C24.077 32.7983 23.4885 32.5768 22.8739 32.4756C22.2593 32.3744 21.6308 32.3954 21.0243 32.5374C20.4178 32.6793 19.8455 32.9393 19.34 33.3027C18.3779 34.0732 17.6411 35.0879 17.2069 36.2402C16.1031 39.2333 15.516 42.3916 15.4706 45.5807C15.4852 45.6723 15.5131 45.7613 15.5533 45.8448H28.7323ZM43.7964 48.3037H16.3635C15.3879 48.3037 15.4045 48.3036 15.4045 49.2773C15.3437 52.1258 15.9436 54.9498 17.1573 57.5287C18.1021 59.4444 19.4983 61.1028 21.2264 62.3617C22.9544 63.6207 24.9626 64.4426 27.0788 64.7569C30.1269 65.4307 33.3021 65.2537 36.2561 64.2453C39.0616 63.2697 41.4481 61.3655 43.0191 58.849L43.4656 58.2053C43.6145 58.5849 43.846 58.849 43.7964 59.047C42.9506 63.9325 40.4809 68.3913 36.7852 71.7046C33.8049 74.1332 30.1407 75.5752 26.3015 75.8302C21.1799 76.4184 15.9988 75.4704 11.4194 73.1073C8.69803 71.6877 6.32842 69.68 4.4833 67.2305C2.63818 64.7809 1.36403 61.9513 0.753772 58.948C-0.353211 54.3446 -0.239208 49.5327 1.08451 44.9866C1.87366 42.0096 3.35792 39.2613 5.41575 36.9666C7.47359 34.672 10.0466 32.8961 12.9242 31.7844C19.1783 29.148 26.1979 28.9594 32.5851 31.2563C35.9873 32.4438 38.92 34.6858 40.9548 37.6548C42.9896 40.6237 44.0201 44.1642 43.8956 47.7591C43.8956 47.8911 43.8956 48.0396 43.8956 48.2707" fill="#1D1D1B"/>
<path d="M152.172 29.7211V30.7112C152.172 41.6691 152.172 52.6435 152.172 63.6013C152.172 65.2515 152.254 66.9018 152.387 68.5521C152.434 69.5235 152.714 70.4694 153.203 71.3106C153.692 72.1519 154.376 72.864 155.198 73.3874C155.608 73.6338 156.001 73.9095 156.372 74.2125C156.616 74.4778 156.827 74.7714 157 75.0871H130.377C130.642 74.691 130.774 74.4436 130.956 74.2125C131.075 74.1058 131.209 74.0168 131.353 73.9484C132.554 73.3316 133.549 72.3786 134.216 71.2062C134.882 70.0337 135.192 68.6927 135.107 67.3473C135.107 59.228 135.107 51.1032 135.107 42.9729C135.061 41.8622 134.917 40.7577 134.677 39.6723C134.407 38.2288 133.662 36.9163 132.56 35.9427C132.014 35.4476 131.436 35.002 130.907 34.4904C130.735 34.2947 130.646 34.0404 130.659 33.7808C130.659 33.6653 131.022 33.5003 131.237 33.4838C136.422 33.1144 141.57 32.3363 146.632 31.1568C148.186 30.7938 149.724 30.3647 151.279 29.9522L152.139 29.7376" fill="#1D1D1B"/>
<path d="M154.288 11.9315C154.288 14.292 153.587 16.5995 152.272 18.562C150.958 20.5245 149.09 22.0537 146.904 22.9563C144.719 23.8589 142.314 24.0943 139.994 23.6325C137.675 23.1708 135.545 22.0328 133.873 20.3625C132.202 18.6922 131.065 16.5646 130.605 14.2491C130.146 11.9335 130.385 9.53398 131.292 7.35407C132.2 5.17417 133.735 3.31188 135.703 2.00282C137.671 0.69376 139.984 -0.00325349 142.349 1.14176e-05C143.919 9.91543e-06 145.472 0.308783 146.922 0.908599C148.372 1.50841 149.688 2.38751 150.797 3.49566C151.906 4.60382 152.785 5.91927 153.384 7.36676C153.983 8.81426 154.29 10.3654 154.288 11.9315Z" fill="#FAD1CE"/>
</svg>
